<mxfile host="app.diagrams.net" agent="Mozilla/5.0 (Windows NT 10.0; Win64; x64) AppleWebKit/537.36 (KHTML, like Gecko) Chrome/136.0.0.0 Safari/537.36 Edg/136.0.0.0" version="27.2.0">
  <diagram id="prtHgNgQTEPvFCAcTncT" name="Bronnen en datakwaliteit">
    <mxGraphModel dx="2938" dy="992" grid="1" gridSize="10" guides="1" tooltips="1" connect="1" arrows="1" fold="1" page="1" pageScale="1" pageWidth="827" pageHeight="1169" math="0" shadow="0">
      <root>
        <mxCell id="0" />
        <mxCell id="1" parent="0" />
        <mxCell id="Q_5ujY60I4RWCZZy6OVE-10" value="Inventariseren Erfgoedatlas" style="rounded=1;whiteSpace=wrap;html=1;fillColor=#d5e8d4;strokeColor=#82b366;fontSize=10;align=center;" parent="1" vertex="1">
          <mxGeometry x="120" y="95" width="240" height="60" as="geometry" />
        </mxCell>
        <mxCell id="Q_5ujY60I4RWCZZy6OVE-11" value="Bijwerken Datasetregister&amp;nbsp;" style="rounded=1;whiteSpace=wrap;html=1;fillColor=#d5e8d4;strokeColor=#82b366;fontSize=10;align=center;" parent="1" vertex="1">
          <mxGeometry x="201" y="170" width="239" height="60" as="geometry" />
        </mxCell>
        <mxCell id="Q_5ujY60I4RWCZZy6OVE-12" value="&lt;span style=&quot;font-family: Verdana;&quot;&gt;&lt;font&gt;Richtlijnen&amp;nbsp;(streven) en aansluitcriteria (eisen) voor DNA Nl&lt;/font&gt;&lt;/span&gt;" style="rounded=1;whiteSpace=wrap;html=1;fillColor=#f8cecc;strokeColor=#b85450;align=center;fontSize=10;" parent="1" vertex="1">
          <mxGeometry x="120" y="320" width="240" height="60" as="geometry" />
        </mxCell>
        <mxCell id="Q_5ujY60I4RWCZZy6OVE-17" value="Maand 1" style="rounded=1;whiteSpace=wrap;html=1;fillColor=#b1ddf0;strokeColor=#10739e;fontSize=10;align=center;" parent="1" vertex="1">
          <mxGeometry x="120" y="25" width="80" height="50" as="geometry" />
        </mxCell>
        <mxCell id="Q_5ujY60I4RWCZZy6OVE-18" value="Maand 2" style="rounded=1;whiteSpace=wrap;html=1;fillColor=#b1ddf0;strokeColor=#10739e;fontSize=10;align=center;" parent="1" vertex="1">
          <mxGeometry x="200" y="26" width="80" height="50" as="geometry" />
        </mxCell>
        <mxCell id="Q_5ujY60I4RWCZZy6OVE-19" value="Maand 3" style="rounded=1;whiteSpace=wrap;html=1;fillColor=#b1ddf0;strokeColor=#10739e;fontSize=10;align=center;" parent="1" vertex="1">
          <mxGeometry x="280" y="26" width="80" height="50" as="geometry" />
        </mxCell>
        <mxCell id="Q_5ujY60I4RWCZZy6OVE-20" value="Maand 4" style="rounded=1;whiteSpace=wrap;html=1;fillColor=#b1ddf0;strokeColor=#10739e;fontSize=10;align=center;" parent="1" vertex="1">
          <mxGeometry x="360" y="26" width="80" height="50" as="geometry" />
        </mxCell>
        <mxCell id="Q_5ujY60I4RWCZZy6OVE-21" value="Maand 5" style="rounded=1;whiteSpace=wrap;html=1;fillColor=#b1ddf0;strokeColor=#10739e;fontSize=10;align=center;" parent="1" vertex="1">
          <mxGeometry x="440" y="26" width="80" height="50" as="geometry" />
        </mxCell>
        <mxCell id="Q_5ujY60I4RWCZZy6OVE-22" value="Maand 6" style="rounded=1;whiteSpace=wrap;html=1;fillColor=#b1ddf0;strokeColor=#10739e;fontSize=10;align=center;" parent="1" vertex="1">
          <mxGeometry x="520" y="26" width="80" height="50" as="geometry" />
        </mxCell>
        <mxCell id="Q_5ujY60I4RWCZZy6OVE-23" value="Maand 7" style="rounded=1;whiteSpace=wrap;html=1;fillColor=#b1ddf0;strokeColor=#10739e;fontSize=10;align=center;" parent="1" vertex="1">
          <mxGeometry x="600" y="26" width="80" height="50" as="geometry" />
        </mxCell>
        <mxCell id="Q_5ujY60I4RWCZZy6OVE-24" value="Maand 8" style="rounded=1;whiteSpace=wrap;html=1;fillColor=#b1ddf0;strokeColor=#10739e;fontSize=10;align=center;" parent="1" vertex="1">
          <mxGeometry x="680" y="26" width="80" height="50" as="geometry" />
        </mxCell>
        <mxCell id="Q_5ujY60I4RWCZZy6OVE-25" value="Maand 9" style="rounded=1;whiteSpace=wrap;html=1;fillColor=#b1ddf0;strokeColor=#10739e;fontSize=10;align=center;" parent="1" vertex="1">
          <mxGeometry x="760" y="26" width="80" height="50" as="geometry" />
        </mxCell>
        <mxCell id="Q_5ujY60I4RWCZZy6OVE-26" value="Maand 10" style="rounded=1;whiteSpace=wrap;html=1;fillColor=#b1ddf0;strokeColor=#10739e;fontSize=10;align=center;" parent="1" vertex="1">
          <mxGeometry x="840" y="26" width="80" height="50" as="geometry" />
        </mxCell>
        <mxCell id="Q_5ujY60I4RWCZZy6OVE-27" value="Maand 11" style="rounded=1;whiteSpace=wrap;html=1;fillColor=#b1ddf0;strokeColor=#10739e;fontSize=10;align=center;" parent="1" vertex="1">
          <mxGeometry x="920" y="26" width="80" height="50" as="geometry" />
        </mxCell>
        <mxCell id="Q_5ujY60I4RWCZZy6OVE-28" value="Maand 12" style="rounded=1;whiteSpace=wrap;html=1;fillColor=#b1ddf0;strokeColor=#10739e;fontSize=10;align=center;" parent="1" vertex="1">
          <mxGeometry x="1000" y="26" width="80" height="50" as="geometry" />
        </mxCell>
        <mxCell id="Q_5ujY60I4RWCZZy6OVE-29" value="&lt;span style=&quot;font-family: Verdana;&quot;&gt;&lt;font&gt;Inrichten&lt;br&gt;van monitoring van kwaliteit van dataset #1&lt;/font&gt;&lt;/span&gt;" style="rounded=1;whiteSpace=wrap;html=1;fillColor=#e1d5e7;strokeColor=#9673a6;fontSize=10;align=center;" parent="1" vertex="1">
          <mxGeometry x="520" y="480" width="120" height="60" as="geometry" />
        </mxCell>
        <mxCell id="Q_5ujY60I4RWCZZy6OVE-30" value="Implementatieplan datakwaliteit dataset #1" style="rounded=1;whiteSpace=wrap;html=1;fillColor=#dae8fc;strokeColor=#6c8ebf;fontSize=10;align=center;" parent="1" vertex="1">
          <mxGeometry x="640" y="480" width="120" height="60" as="geometry" />
        </mxCell>
        <mxCell id="Q_5ujY60I4RWCZZy6OVE-34" value="Proces voor bijwerken en beheer Datasetregister" style="rounded=1;whiteSpace=wrap;html=1;fillColor=#d5e8d4;strokeColor=#82b366;fontSize=10;align=center;" parent="1" vertex="1">
          <mxGeometry x="439" y="170" width="241" height="60" as="geometry" />
        </mxCell>
        <mxCell id="VA7mebQzwJYgv3DXdSb5-1" value="Maand 13" style="rounded=1;whiteSpace=wrap;html=1;fillColor=#b1ddf0;strokeColor=#10739e;fontSize=10;align=center;" parent="1" vertex="1">
          <mxGeometry x="1080" y="26" width="80" height="50" as="geometry" />
        </mxCell>
        <mxCell id="VA7mebQzwJYgv3DXdSb5-2" value="Maand 14" style="rounded=1;whiteSpace=wrap;html=1;fillColor=#b1ddf0;strokeColor=#10739e;fontSize=10;align=center;" parent="1" vertex="1">
          <mxGeometry x="1160" y="26" width="80" height="50" as="geometry" />
        </mxCell>
        <mxCell id="VA7mebQzwJYgv3DXdSb5-3" value="Maand 15" style="rounded=1;whiteSpace=wrap;html=1;fillColor=#b1ddf0;strokeColor=#10739e;fontSize=10;align=center;" parent="1" vertex="1">
          <mxGeometry x="1240" y="26" width="80" height="50" as="geometry" />
        </mxCell>
        <mxCell id="VA7mebQzwJYgv3DXdSb5-4" value="Maand 15" style="rounded=1;whiteSpace=wrap;html=1;fillColor=#b1ddf0;strokeColor=#10739e;fontSize=10;align=center;" parent="1" vertex="1">
          <mxGeometry x="1320" y="26" width="80" height="50" as="geometry" />
        </mxCell>
        <mxCell id="VA7mebQzwJYgv3DXdSb5-5" value="Maand 16" style="rounded=1;whiteSpace=wrap;html=1;fillColor=#b1ddf0;strokeColor=#10739e;fontSize=10;align=center;" parent="1" vertex="1">
          <mxGeometry x="1400" y="26" width="80" height="50" as="geometry" />
        </mxCell>
        <mxCell id="VA7mebQzwJYgv3DXdSb5-6" value="Maand 17" style="rounded=1;whiteSpace=wrap;html=1;fillColor=#b1ddf0;strokeColor=#10739e;fontSize=10;align=center;" parent="1" vertex="1">
          <mxGeometry x="1480" y="26" width="80" height="50" as="geometry" />
        </mxCell>
        <mxCell id="VA7mebQzwJYgv3DXdSb5-7" value="Maand 18" style="rounded=1;whiteSpace=wrap;html=1;fillColor=#b1ddf0;strokeColor=#10739e;fontSize=10;align=center;" parent="1" vertex="1">
          <mxGeometry x="1560" y="26" width="80" height="50" as="geometry" />
        </mxCell>
        <mxCell id="VA7mebQzwJYgv3DXdSb5-22" value="" style="edgeStyle=orthogonalEdgeStyle;rounded=0;orthogonalLoop=1;jettySize=auto;html=1;align=center;entryX=0;entryY=0.75;entryDx=0;entryDy=0;" parent="1" source="VA7mebQzwJYgv3DXdSb5-12" target="Q_5ujY60I4RWCZZy6OVE-12" edge="1">
          <mxGeometry relative="1" as="geometry" />
        </mxCell>
        <mxCell id="VA7mebQzwJYgv3DXdSb5-12" value="Resultaten PoC Generiek Datamodel" style="rounded=1;whiteSpace=wrap;html=1;dashed=1;dashPattern=8 8;fontSize=10;align=center;" parent="1" vertex="1">
          <mxGeometry x="10" y="250" width="149" height="60" as="geometry" />
        </mxCell>
        <mxCell id="VA7mebQzwJYgv3DXdSb5-13" value="PvE Datakwaliteitsmonitoring" style="whiteSpace=wrap;html=1;fillColor=#ffe6cc;strokeColor=#d79b00;rounded=1;fontSize=10;align=center;" parent="1" vertex="1">
          <mxGeometry x="120" y="400" width="160" height="60" as="geometry" />
        </mxCell>
        <mxCell id="VA7mebQzwJYgv3DXdSb5-20" style="edgeStyle=orthogonalEdgeStyle;rounded=0;orthogonalLoop=1;jettySize=auto;html=1;entryX=0;entryY=0.5;entryDx=0;entryDy=0;exitX=1;exitY=0.5;exitDx=0;exitDy=0;align=center;" parent="1" source="Q_5ujY60I4RWCZZy6OVE-12" target="Q_5ujY60I4RWCZZy6OVE-29" edge="1">
          <mxGeometry relative="1" as="geometry">
            <mxPoint x="530" y="320" as="sourcePoint" />
            <mxPoint x="511" y="440" as="targetPoint" />
            <Array as="points">
              <mxPoint x="360" y="510" />
            </Array>
          </mxGeometry>
        </mxCell>
        <mxCell id="VA7mebQzwJYgv3DXdSb5-83" value="&lt;span style=&quot;font-family: Verdana;&quot;&gt;&lt;font&gt;Dynamische dataset roadmap DNA Nl&lt;/font&gt;&lt;/span&gt;" style="rounded=1;whiteSpace=wrap;html=1;fillColor=#0050ef;strokeColor=#001DBC;fontSize=10;align=center;fontColor=#ffffff;" parent="1" vertex="1">
          <mxGeometry x="720" y="1120" width="890" height="60" as="geometry" />
        </mxCell>
        <mxCell id="UewnSkYKkBUMaRGEI1Gs-1" value="MDM proces Generiek Datamodel" style="whiteSpace=wrap;html=1;fillColor=#1ba1e2;strokeColor=#006EAF;rounded=1;fontSize=10;align=center;fontColor=#ffffff;" parent="1" vertex="1">
          <mxGeometry x="680" y="250" width="320" height="60" as="geometry" />
        </mxCell>
        <mxCell id="UewnSkYKkBUMaRGEI1Gs-11" value="" style="endArrow=classic;html=1;rounded=0;entryX=0;entryY=0.5;entryDx=0;entryDy=0;" parent="1" target="Q_5ujY60I4RWCZZy6OVE-29" edge="1">
          <mxGeometry width="50" height="50" relative="1" as="geometry">
            <mxPoint x="470" y="460" as="sourcePoint" />
            <mxPoint x="830" y="440" as="targetPoint" />
            <Array as="points">
              <mxPoint x="470" y="510" />
            </Array>
          </mxGeometry>
        </mxCell>
        <mxCell id="UewnSkYKkBUMaRGEI1Gs-13" value="" style="edgeStyle=orthogonalEdgeStyle;rounded=0;orthogonalLoop=1;jettySize=auto;html=1;align=center;exitX=1;exitY=0.5;exitDx=0;exitDy=0;entryX=0;entryY=0.5;entryDx=0;entryDy=0;" parent="1" source="VA7mebQzwJYgv3DXdSb5-12" target="UewnSkYKkBUMaRGEI1Gs-1" edge="1">
          <mxGeometry relative="1" as="geometry">
            <mxPoint x="190" y="290" as="sourcePoint" />
            <mxPoint x="261" y="340" as="targetPoint" />
          </mxGeometry>
        </mxCell>
        <mxCell id="UewnSkYKkBUMaRGEI1Gs-15" value="&lt;span style=&quot;font-family: Verdana;&quot;&gt;&lt;font&gt;Inrichten&lt;br&gt;van monitoring van kwaliteit van dataset #2&lt;/font&gt;&lt;/span&gt;" style="rounded=1;whiteSpace=wrap;html=1;fillColor=#e1d5e7;strokeColor=#9673a6;fontSize=10;align=center;" parent="1" vertex="1">
          <mxGeometry x="640" y="560" width="120" height="60" as="geometry" />
        </mxCell>
        <mxCell id="UewnSkYKkBUMaRGEI1Gs-16" value="Implementatieplan datakwaliteit dataset #2" style="rounded=1;whiteSpace=wrap;html=1;fillColor=#dae8fc;strokeColor=#6c8ebf;fontSize=10;align=center;" parent="1" vertex="1">
          <mxGeometry x="760" y="560" width="120" height="60" as="geometry" />
        </mxCell>
        <mxCell id="UewnSkYKkBUMaRGEI1Gs-17" value="&lt;span style=&quot;font-family: Verdana;&quot;&gt;&lt;font&gt;Inrichten&lt;br&gt;van monitoring van kwaliteit van dataset #3&lt;/font&gt;&lt;/span&gt;" style="rounded=1;whiteSpace=wrap;html=1;fillColor=#e1d5e7;strokeColor=#9673a6;fontSize=10;align=center;" parent="1" vertex="1">
          <mxGeometry x="760" y="640" width="120" height="60" as="geometry" />
        </mxCell>
        <mxCell id="UewnSkYKkBUMaRGEI1Gs-18" value="Implementatieplan datakwaliteit dataset #3" style="rounded=1;whiteSpace=wrap;html=1;fillColor=#dae8fc;strokeColor=#6c8ebf;fontSize=10;align=center;" parent="1" vertex="1">
          <mxGeometry x="880" y="640" width="120" height="60" as="geometry" />
        </mxCell>
        <mxCell id="UewnSkYKkBUMaRGEI1Gs-19" value="&lt;span style=&quot;font-family: Verdana;&quot;&gt;&lt;font&gt;Inrichten&lt;br&gt;van monitoring van kwaliteit van dataset #4&lt;/font&gt;&lt;/span&gt;" style="rounded=1;whiteSpace=wrap;html=1;fillColor=#e1d5e7;strokeColor=#9673a6;fontSize=10;align=center;" parent="1" vertex="1">
          <mxGeometry x="879.5" y="720" width="120" height="60" as="geometry" />
        </mxCell>
        <mxCell id="UewnSkYKkBUMaRGEI1Gs-20" value="Implementatieplan datakwaliteit dataset #4" style="rounded=1;whiteSpace=wrap;html=1;fillColor=#dae8fc;strokeColor=#6c8ebf;fontSize=10;align=center;" parent="1" vertex="1">
          <mxGeometry x="999.5" y="720" width="120" height="60" as="geometry" />
        </mxCell>
        <mxCell id="UewnSkYKkBUMaRGEI1Gs-21" value="&lt;span style=&quot;font-family: Verdana;&quot;&gt;&lt;font&gt;Inrichten&lt;br&gt;van monitoring van kwaliteit van dataset #5&lt;/font&gt;&lt;/span&gt;" style="rounded=1;whiteSpace=wrap;html=1;fillColor=#e1d5e7;strokeColor=#9673a6;fontSize=10;align=center;" parent="1" vertex="1">
          <mxGeometry x="1001" y="800" width="120" height="60" as="geometry" />
        </mxCell>
        <mxCell id="UewnSkYKkBUMaRGEI1Gs-22" value="Implementatieplan datakwaliteit dataset #5" style="rounded=1;whiteSpace=wrap;html=1;fillColor=#dae8fc;strokeColor=#6c8ebf;fontSize=10;align=center;" parent="1" vertex="1">
          <mxGeometry x="1121" y="800" width="120" height="60" as="geometry" />
        </mxCell>
        <mxCell id="UewnSkYKkBUMaRGEI1Gs-23" value="&lt;span style=&quot;font-family: Verdana;&quot;&gt;&lt;font&gt;Inrichten&lt;br&gt;van monitoring van kwaliteit van dataset #6&lt;/font&gt;&lt;/span&gt;" style="rounded=1;whiteSpace=wrap;html=1;fillColor=#e1d5e7;strokeColor=#9673a6;fontSize=10;align=center;" parent="1" vertex="1">
          <mxGeometry x="1120.5" y="880" width="120" height="60" as="geometry" />
        </mxCell>
        <mxCell id="UewnSkYKkBUMaRGEI1Gs-24" value="Implementatieplan datakwaliteit dataset #6" style="rounded=1;whiteSpace=wrap;html=1;fillColor=#dae8fc;strokeColor=#6c8ebf;fontSize=10;align=center;" parent="1" vertex="1">
          <mxGeometry x="1240.5" y="880" width="120" height="60" as="geometry" />
        </mxCell>
        <mxCell id="UewnSkYKkBUMaRGEI1Gs-25" value="&lt;span style=&quot;font-family: Verdana;&quot;&gt;&lt;font&gt;Inrichten&lt;br&gt;van monitoring van kwaliteit van dataset #7&lt;/font&gt;&lt;/span&gt;" style="rounded=1;whiteSpace=wrap;html=1;fillColor=#e1d5e7;strokeColor=#9673a6;fontSize=10;align=center;" parent="1" vertex="1">
          <mxGeometry x="1241" y="960" width="120" height="60" as="geometry" />
        </mxCell>
        <mxCell id="UewnSkYKkBUMaRGEI1Gs-26" value="Implementatieplan datakwaliteit dataset #7" style="rounded=1;whiteSpace=wrap;html=1;fillColor=#dae8fc;strokeColor=#6c8ebf;fontSize=10;align=center;" parent="1" vertex="1">
          <mxGeometry x="1361" y="960" width="120" height="60" as="geometry" />
        </mxCell>
        <mxCell id="UewnSkYKkBUMaRGEI1Gs-27" value="&lt;span style=&quot;font-family: Verdana;&quot;&gt;&lt;font&gt;Inrichten&lt;br&gt;van monitoring van kwaliteit van dataset #8&lt;/font&gt;&lt;/span&gt;" style="rounded=1;whiteSpace=wrap;html=1;fillColor=#e1d5e7;strokeColor=#9673a6;fontSize=10;align=center;" parent="1" vertex="1">
          <mxGeometry x="1361" y="1040" width="120" height="60" as="geometry" />
        </mxCell>
        <mxCell id="UewnSkYKkBUMaRGEI1Gs-28" value="Implementatieplan datakwaliteit dataset #8" style="rounded=1;whiteSpace=wrap;html=1;fillColor=#dae8fc;strokeColor=#6c8ebf;fontSize=10;align=center;" parent="1" vertex="1">
          <mxGeometry x="1480" y="1040" width="120" height="60" as="geometry" />
        </mxCell>
        <mxCell id="UewnSkYKkBUMaRGEI1Gs-37" value="&lt;font style=&quot;font-size: 10px;&quot;&gt;Project&amp;nbsp;&lt;/font&gt;&lt;div&gt;&lt;font style=&quot;font-size: 10px;&quot;&gt;Onderdeel 4&lt;/font&gt;&lt;/div&gt;" style="rounded=1;whiteSpace=wrap;html=1;fillColor=#e1d5e7;strokeColor=#9673a6;" parent="1" vertex="1">
          <mxGeometry x="24.5" y="780" width="95.5" height="60" as="geometry" />
        </mxCell>
        <mxCell id="UewnSkYKkBUMaRGEI1Gs-38" value="Project&lt;div&gt;onderdeel 5&lt;/div&gt;" style="rounded=1;whiteSpace=wrap;html=1;fillColor=#dae8fc;strokeColor=#6c8ebf;fontSize=10;align=center;" parent="1" vertex="1">
          <mxGeometry x="24.5" y="850" width="95.5" height="60" as="geometry" />
        </mxCell>
        <mxCell id="UewnSkYKkBUMaRGEI1Gs-39" value="&lt;font style=&quot;font-size: 10px;&quot;&gt;Beheerproces datamonitoring&lt;/font&gt;" style="rounded=1;whiteSpace=wrap;html=1;fillColor=#e1d5e7;strokeColor=#9673a6;" parent="1" vertex="1">
          <mxGeometry x="1001" y="250" width="120" height="60" as="geometry" />
        </mxCell>
        <mxCell id="UewnSkYKkBUMaRGEI1Gs-40" value="Project&amp;nbsp;&lt;div&gt;onderdeel 1&lt;/div&gt;" style="rounded=1;whiteSpace=wrap;html=1;fillColor=#d5e8d4;strokeColor=#82b366;fontSize=10;align=center;" parent="1" vertex="1">
          <mxGeometry x="24.5" y="570" width="95.5" height="60" as="geometry" />
        </mxCell>
        <mxCell id="UewnSkYKkBUMaRGEI1Gs-41" value="&lt;span style=&quot;font-family: Verdana;&quot;&gt;&lt;font&gt;Project&lt;/font&gt;&lt;/span&gt;&lt;div&gt;&lt;span style=&quot;font-family: Verdana;&quot;&gt;&lt;font&gt;onderdeel 2&lt;/font&gt;&lt;/span&gt;&lt;/div&gt;" style="rounded=1;whiteSpace=wrap;html=1;fillColor=#f8cecc;strokeColor=#b85450;align=center;fontSize=10;" parent="1" vertex="1">
          <mxGeometry x="24.5" y="640" width="95.5" height="60" as="geometry" />
        </mxCell>
        <mxCell id="UewnSkYKkBUMaRGEI1Gs-42" value="Project&amp;nbsp;&lt;div&gt;onderdeel 3&lt;/div&gt;" style="whiteSpace=wrap;html=1;fillColor=#ffe6cc;strokeColor=#d79b00;rounded=1;fontSize=10;align=center;" parent="1" vertex="1">
          <mxGeometry x="24.5" y="710" width="95.5" height="60" as="geometry" />
        </mxCell>
        <mxCell id="UewnSkYKkBUMaRGEI1Gs-43" value="&lt;span style=&quot;font-family: Verdana;&quot;&gt;&lt;font&gt;Project&lt;/font&gt;&lt;/span&gt;&lt;div&gt;&lt;span style=&quot;font-family: Verdana;&quot;&gt;&lt;font&gt;onderdeel 6&lt;/font&gt;&lt;/span&gt;&lt;/div&gt;" style="rounded=1;whiteSpace=wrap;html=1;fillColor=#0050ef;strokeColor=#001DBC;fontSize=10;align=center;fontColor=#ffffff;" parent="1" vertex="1">
          <mxGeometry x="24.5" y="920" width="95.5" height="60" as="geometry" />
        </mxCell>
        <mxCell id="UewnSkYKkBUMaRGEI1Gs-44" value="Project&lt;div&gt;onderdeel 7&lt;/div&gt;" style="whiteSpace=wrap;html=1;fillColor=#1ba1e2;strokeColor=#006EAF;rounded=1;fontSize=10;align=center;fontColor=#ffffff;" parent="1" vertex="1">
          <mxGeometry x="24.5" y="990" width="95.5" height="60" as="geometry" />
        </mxCell>
        <mxCell id="65ndFevK5ekyBaoyx3CK-1" value="&lt;font face=&quot;Verdana&quot;&gt;Bouwen van de volledige infra- en ETL-structuur op Standaard Platform plus koppelen en inladen van brondata&amp;nbsp;&lt;/font&gt;" style="rounded=1;whiteSpace=wrap;html=1;fillColor=#e1d5e7;strokeColor=#9673a6;fontSize=10;align=center;" parent="1" vertex="1">
          <mxGeometry x="280" y="400" width="360" height="60" as="geometry" />
        </mxCell>
        <mxCell id="65ndFevK5ekyBaoyx3CK-2" value="&lt;font face=&quot;Verdana&quot;&gt;Advies functionaliteiten dataverwerkingslaag&lt;/font&gt;" style="rounded=1;whiteSpace=wrap;html=1;fillColor=#d80073;strokeColor=#A50040;fontSize=10;align=center;fontColor=#ffffff;" parent="1" vertex="1">
          <mxGeometry x="1121" y="1200" width="159" height="60" as="geometry" />
        </mxCell>
        <mxCell id="65ndFevK5ekyBaoyx3CK-3" value="Project&lt;div&gt;onderdeel 8&lt;/div&gt;" style="rounded=1;whiteSpace=wrap;html=1;fillColor=#d80073;strokeColor=#A50040;fontSize=10;align=center;fontColor=#ffffff;" parent="1" vertex="1">
          <mxGeometry x="30" y="1070" width="90" height="60" as="geometry" />
        </mxCell>
      </root>
    </mxGraphModel>
  </diagram>
</mxfile>
